<?xml version="1.0" encoding="UTF-8" standalone="no"?>
<svg width="121px" height="30px" viewBox="0 0 121 30" version="1.1" xmlns="http://www.w3.org/2000/svg" xmlns:xlink="http://www.w3.org/1999/xlink" xmlns:sketch="http://www.bohemiancoding.com/sketch/ns">
    <!-- Generator: Sketch 3.4.3 (16044) - http://www.bohemiancoding.com/sketch -->
    <title>Group 16</title>
    <desc>Created with Sketch.</desc>
    <defs></defs>
    <g id="Page-1" stroke="none" stroke-width="1" fill="none" fill-rule="evenodd" sketch:type="MSPage">
        <g id="Group-16" sketch:type="MSLayerGroup" transform="translate(0.000000, -1.000000)" fill="#264A46">
            <path d="M115.2354,7.3682 C115.2354,6.1092 114.7204,5.4582 113.5544,5.4582 L110.9864,5.4582 L110.9864,15.3132 L113.5544,15.3132 C114.7204,15.3132 115.2354,14.6622 115.2354,13.4032 L115.2354,7.3682 Z M113.9744,19.0032 L110.9864,19.0032 L110.9864,30.4222 L106.0364,30.4222 L106.0364,1.5072 L113.9744,1.5072 C117.5234,1.5072 120.0464,3.3302 120.0464,7.3682 L120.0464,13.1862 C120.0464,17.1802 117.5234,19.0032 113.9744,19.0032 L113.9744,19.0032 Z" id="Fill-6" sketch:type="MSShapeGroup"></path>
            <path d="M86.5635,30.9438 C82.3605,30.9438 79.2315,28.3388 79.2315,24.4308 L79.2315,1.5068 L84.2285,1.5068 L84.2285,24.5178 C84.2285,25.9938 85.0685,26.8188 86.5635,26.8188 C88.1515,26.8188 88.9915,25.9938 88.9915,24.5178 L88.9915,1.5068 L93.8015,1.5068 L93.8015,24.4308 C93.8015,28.3388 90.7665,30.9438 86.5635,30.9438" id="Fill-8" sketch:type="MSShapeGroup"></path>
            <path d="M62.9336,7.4985 C62.9336,6.1095 62.0466,5.1535 60.5056,5.1535 C58.9646,5.1535 58.0776,6.1095 58.0776,7.4985 L58.0776,24.4315 C58.0776,25.8205 58.9646,26.7755 60.5056,26.7755 C62.0466,26.7755 62.9336,25.8205 62.9336,24.4315 L62.9336,7.4985 Z M60.5056,30.9435 C56.0216,30.9435 53.0806,28.1215 53.0806,24.0835 L53.0806,7.8455 C53.0806,3.8515 56.0216,0.9855 60.5056,0.9855 C64.9886,0.9855 67.9306,3.8515 67.9306,7.8455 L67.9306,24.0835 C67.9306,28.1215 64.9886,30.9435 60.5056,30.9435 L60.5056,30.9435 Z" id="Fill-10" sketch:type="MSShapeGroup"></path>
            <path d="M36.5488,7.3247 C36.5488,6.1087 36.0328,5.4577 34.8668,5.4577 L32.2998,5.4577 L32.2998,14.6187 L34.6808,14.6187 C35.8948,14.6187 36.5488,13.9677 36.5488,12.5777 L36.5488,7.3247 Z M39.3968,30.5527 C37.4828,30.5527 36.7358,28.8157 36.7358,26.5587 L36.7358,20.3497 C36.7358,19.1777 36.0818,18.2227 34.7278,18.2227 L32.2998,18.2227 L32.2998,30.4227 L27.3498,30.4227 L27.3498,1.5067 L35.2888,1.5067 C38.7428,1.5067 41.4038,3.2867 41.4038,7.1947 L41.4038,12.3177 C41.4038,14.2717 40.4708,15.7047 38.4638,16.3987 C40.4708,17.0497 41.4988,18.6127 41.4988,20.3927 L41.4988,26.2977 C41.4988,27.6007 41.8248,28.5117 42.4328,29.2497 L42.4328,30.5527 L39.3968,30.5527 Z" id="Fill-12" sketch:type="MSShapeGroup"></path>
            <path d="M12.3584,30.4224 L11.6104,28.4684 C10.7704,30.1184 8.9494,30.9434 6.8474,30.9434 C2.7384,30.9434 0.1704,28.2084 0.1704,24.3004 L0.1704,7.6284 C0.1704,4.0254 3.0644,0.9854 7.6414,0.9854 C12.2184,0.9854 14.7854,3.9384 14.7854,7.6284 L14.7854,11.4924 L10.1164,11.4924 L10.1164,7.3684 C10.1164,6.1524 9.3224,5.1534 7.6414,5.1534 C6.0054,5.1534 5.1664,6.1964 5.1664,7.4114 L5.1664,24.6044 C5.1664,25.8634 6.0534,26.9054 7.6874,26.9054 C9.3694,26.9054 10.2114,25.8634 10.2114,24.6044 L10.2114,19.4374 L7.7814,19.4374 L7.7814,15.9644 L15.0194,15.9644 L15.0194,30.4224 L12.3584,30.4224 Z" id="Fill-14" sketch:type="MSShapeGroup"></path>
        </g>
    </g>
</svg>