<?xml version="1.0" encoding="UTF-8" standalone="no"?>
<svg width="73px" height="30px" viewBox="0 0 73 30" version="1.1" xmlns="http://www.w3.org/2000/svg" xmlns:xlink="http://www.w3.org/1999/xlink" xmlns:sketch="http://www.bohemiancoding.com/sketch/ns">
    <!-- Generator: Sketch 3.4.3 (16044) - http://www.bohemiancoding.com/sketch -->
    <title>Group 23</title>
    <desc>Created with Sketch.</desc>
    <defs></defs>
    <g id="Page-1" stroke="none" stroke-width="1" fill="none" fill-rule="evenodd" sketch:type="MSPage">
        <g id="Group-23" sketch:type="MSLayerGroup" transform="translate(0.000000, -1.000000)" fill="#000000">
            <path d="M65.6338,30.9438 C61.1038,30.9438 58.1138,27.9918 58.1138,24.0408 L58.1138,7.8888 C58.1138,3.9378 61.1038,0.9858 65.6338,0.9858 C70.2108,0.9858 72.6858,3.7648 72.6858,7.6288 L72.6858,11.7968 L68.2958,11.7968 L68.2958,7.5418 C68.2958,6.1528 67.4548,5.1538 65.7278,5.1538 C63.9988,5.1538 63.1578,6.1528 63.1578,7.4988 L63.1578,24.4308 C63.1578,25.7768 63.9988,26.7758 65.7278,26.7758 C67.4548,26.7758 68.2958,25.7768 68.2958,24.3878 L68.2958,20.0898 L72.6858,20.0898 L72.6858,24.3008 C72.6858,28.1648 70.2108,30.9438 65.6338,30.9438" id="Fill-17" sketch:type="MSShapeGroup"></path>
            <path d="M41.4434,30.4224 L41.4434,8.9314 L40.4634,15.0094 L37.5674,30.4224 L33.8324,30.4224 L31.0774,15.0094 L30.1424,8.9314 L30.1424,30.4224 L25.7544,30.4224 L25.7544,1.5064 L32.4304,1.5064 L35.1384,16.1384 L35.9794,21.7384 L36.8664,16.1384 L39.5294,1.5064 L46.1134,1.5064 L46.1134,30.4224 L41.4434,30.4224 Z" id="Fill-19" sketch:type="MSShapeGroup"></path>
            <path d="M10.0156,5.7183 L10.0156,30.4223 L5.0656,30.4223 L5.0656,5.7183 L0.2536,5.7183 L0.2536,1.5073 L14.7316,1.5073 L14.7316,5.7183 L10.0156,5.7183 Z" id="Fill-21" sketch:type="MSShapeGroup"></path>
        </g>
    </g>
</svg>